# xmcd
#
# Track frame offsets:
#	150
#	14615
#	30115
#	45815
#	63150
#	81585
#	96030
#	111640
#	127275
#	144585
#
# Disc length: 2174
#
# Revision: 2
# Processed by: cddbd v1.5.1PL0 Copyright (c) Steve Scherf et al.
# Submitted via: EasyCDDAExtractor 7.0.5.1
# Normalized: r1:DSETVAR1
#
DISCID=84087c0a
DTITLE=Various Artist - Sing-A-Long-Vol. 4
DYEAR=1998
DGENRE=country
TTITLE0=Alabama - How Do You Fall In Love
TTITLE1=Mark Wills - I Do (Cherish You)
TTITLE2=Tim McGraw - Where The Green Grass Grows
TTITLE3=Dixie Chicks - Wide Open Spaces
TTITLE4=Lee Ann Womack - A Little Past Little Rock
TTITLE5=Alabama - How Do You Fall In Love
TTITLE6=Mark Wills - I Do (Cherish You)
TTITLE7=Tim McGraw - Where The Green Grass Grows
TTITLE8=Dixie Chicks - Wide Open Spaces
TTITLE9=Lee Ann Womack - A Little Past Little Rock
EXTD=
EXTT0=Instrumental Tracks\n
EXTT1=Instrumental Tracks\n
EXTT2=Instrumental Tracks\n
EXTT3=Instrumental Tracks\n
EXTT4=Instrumental Tracks\n
EXTT5=Reference Vocals\n
EXTT6=Reference Vocals\n
EXTT7=Reference Vocals\n
EXTT8=Reference Vocals\n
EXTT9=Reference Vocals\n
PLAYORDER=
